<svg xmlns="http://www.w3.org/2000/svg" xmlns:xlink="http://www.w3.org/1999/xlink" width="500" zoomAndPan="magnify" viewBox="0 0 375 374.999991" height="500" preserveAspectRatio="xMidYMid meet" version="1.0"><defs><g/><clipPath id="57cd639085"><path d="M 61.71875 4.542969 L 312.96875 4.542969 L 312.96875 370.542969 L 61.71875 370.542969 Z M 61.71875 4.542969 " clip-rule="nonzero"/></clipPath><clipPath id="13cbc92f3f"><path d="M 71 5 L 312.96875 5 L 312.96875 361 L 71 361 Z M 71 5 " clip-rule="nonzero"/></clipPath><clipPath id="faf3a21892"><path d="M 61.71875 4.542969 L 312.96875 4.542969 L 312.96875 370.542969 L 61.71875 370.542969 Z M 61.71875 4.542969 " clip-rule="nonzero"/></clipPath><clipPath id="785ddc2e01"><path d="M 69 44 L 312.96875 44 L 312.96875 47 L 69 47 Z M 69 44 " clip-rule="nonzero"/></clipPath><clipPath id="6e5bca1fb1"><path d="M 61.71875 4.542969 L 312.96875 4.542969 L 312.96875 370.542969 L 61.71875 370.542969 Z M 61.71875 4.542969 " clip-rule="nonzero"/></clipPath><clipPath id="9eca818e92"><path d="M 88.234375 59.863281 L 106 59.863281 L 106 78 L 88.234375 78 Z M 88.234375 59.863281 " clip-rule="nonzero"/></clipPath><clipPath id="8b021d61e6"><path d="M 88.234375 90 L 106 90 L 106 109 L 88.234375 109 Z M 88.234375 90 " clip-rule="nonzero"/></clipPath><clipPath id="0e9ad58cd3"><path d="M 88.234375 122 L 106 122 L 106 140 L 88.234375 140 Z M 88.234375 122 " clip-rule="nonzero"/></clipPath><clipPath id="885e0fc4f0"><path d="M 88.234375 153 L 106 153 L 106 171 L 88.234375 171 Z M 88.234375 153 " clip-rule="nonzero"/></clipPath><clipPath id="678fd2af2c"><path d="M 88.234375 184 L 106 184 L 106 202 L 88.234375 202 Z M 88.234375 184 " clip-rule="nonzero"/></clipPath><clipPath id="ce5ca2c761"><path d="M 88.234375 215 L 106 215 L 106 233 L 88.234375 233 Z M 88.234375 215 " clip-rule="nonzero"/></clipPath><clipPath id="6fadf59dcb"><path d="M 88.234375 246 L 106 246 L 106 265 L 88.234375 265 Z M 88.234375 246 " clip-rule="nonzero"/></clipPath><clipPath id="3b98b293f0"><path d="M 88.234375 277 L 106 277 L 106 296 L 88.234375 296 Z M 88.234375 277 " clip-rule="nonzero"/></clipPath><clipPath id="68a6d9f52a"><path d="M 88.234375 308 L 106 308 L 106 327 L 88.234375 327 Z M 88.234375 308 " clip-rule="nonzero"/></clipPath></defs><path fill="#524780" d="M 75.910156 14.191406 L 290.773438 14.191406 C 291.625 14.191406 292.46875 14.273438 293.300781 14.4375 C 294.136719 14.605469 294.945312 14.851562 295.730469 15.175781 C 296.515625 15.5 297.261719 15.898438 297.96875 16.371094 C 298.675781 16.84375 299.332031 17.382812 299.933594 17.980469 C 300.53125 18.582031 301.070312 19.238281 301.542969 19.945312 C 302.015625 20.652344 302.414062 21.398438 302.738281 22.183594 C 303.0625 22.96875 303.308594 23.777344 303.476562 24.613281 C 303.640625 25.445312 303.726562 26.289062 303.726562 27.140625 L 303.726562 356.15625 C 303.726562 357.007812 303.640625 357.847656 303.476562 358.683594 C 303.308594 359.515625 303.0625 360.328125 302.738281 361.113281 C 302.414062 361.898438 302.015625 362.644531 301.542969 363.351562 C 301.070312 364.058594 300.53125 364.710938 299.933594 365.3125 C 299.332031 365.914062 298.675781 366.449219 297.96875 366.921875 C 297.261719 367.394531 296.515625 367.792969 295.730469 368.121094 C 294.945312 368.445312 294.136719 368.691406 293.300781 368.855469 C 292.46875 369.023438 291.625 369.105469 290.773438 369.105469 L 75.910156 369.105469 C 75.0625 369.105469 74.21875 369.023438 73.386719 368.855469 C 72.550781 368.691406 71.742188 368.445312 70.957031 368.121094 C 70.171875 367.792969 69.425781 367.394531 68.71875 366.921875 C 68.011719 366.449219 67.355469 365.914062 66.753906 365.3125 C 66.152344 364.710938 65.617188 364.058594 65.144531 363.351562 C 64.671875 362.644531 64.273438 361.898438 63.949219 361.113281 C 63.621094 360.328125 63.378906 359.515625 63.210938 358.683594 C 63.046875 357.847656 62.960938 357.007812 62.960938 356.15625 L 62.960938 27.140625 C 62.960938 26.289062 63.046875 25.445312 63.210938 24.613281 C 63.378906 23.777344 63.621094 22.96875 63.949219 22.183594 C 64.273438 21.398438 64.671875 20.652344 65.144531 19.945312 C 65.617188 19.238281 66.152344 18.582031 66.753906 17.980469 C 67.355469 17.382812 68.011719 16.84375 68.71875 16.371094 C 69.425781 15.898438 70.171875 15.5 70.957031 15.175781 C 71.742188 14.851562 72.550781 14.605469 73.386719 14.4375 C 74.21875 14.273438 75.0625 14.191406 75.910156 14.191406 Z M 75.910156 14.191406 " fill-opacity="1" fill-rule="nonzero"/><g clip-path="url(#57cd639085)"><path stroke-linecap="butt" transform="matrix(0.207553, 0, 0, 0.207553, 61.717383, 4.642071)" fill="none" stroke-linejoin="miter" d="M 68.38132 46.009058 L 1103.600756 46.009058 C 1107.703616 46.009058 1111.768836 46.404288 1115.777594 47.194747 C 1119.805172 48.004027 1123.701008 49.189716 1127.48392 50.751814 C 1131.266833 52.313912 1134.861541 54.233599 1138.268044 56.510875 C 1141.674548 58.788151 1144.836385 61.385374 1147.734736 64.264905 C 1150.614266 67.163256 1153.21149 70.325093 1155.488766 73.731596 C 1157.766041 77.1381 1159.685728 80.732808 1161.247827 84.51572 C 1162.809925 88.298633 1163.995614 92.194468 1164.804894 96.222047 C 1165.595353 100.230805 1166.009403 104.296024 1166.009403 108.398885 L 1166.009403 1693.60864 C 1166.009403 1697.711501 1165.595353 1701.7579 1164.804894 1705.785478 C 1163.995614 1709.794237 1162.809925 1713.708892 1161.247827 1717.491805 C 1159.685728 1721.274718 1157.766041 1724.869426 1155.488766 1728.275929 C 1153.21149 1731.682432 1150.614266 1734.825449 1147.734736 1737.7238 C 1144.836385 1740.622151 1141.674548 1743.200554 1138.268044 1745.47783 C 1134.861541 1747.755106 1131.266833 1749.674793 1127.48392 1751.255711 C 1123.701008 1752.81781 1119.805172 1754.003499 1115.777594 1754.793958 C 1111.768836 1755.603238 1107.703616 1755.998467 1103.600756 1755.998467 L 68.38132 1755.998467 C 64.29728 1755.998467 60.232061 1755.603238 56.223303 1754.793958 C 52.195724 1754.003499 48.299889 1752.81781 44.516976 1751.255711 C 40.734064 1749.674793 37.139356 1747.755106 33.732852 1745.47783 C 30.326349 1743.200554 27.164512 1740.622151 24.266161 1737.7238 C 21.36781 1734.825449 18.789407 1731.682432 16.512131 1728.275929 C 14.234855 1724.869426 12.315168 1721.274718 10.75307 1717.491805 C 9.172151 1713.708892 8.005283 1709.794237 7.196003 1705.785478 C 6.405544 1701.7579 5.991493 1697.711501 5.991493 1693.60864 L 5.991493 108.398885 C 5.991493 104.296024 6.405544 100.230805 7.196003 96.222047 C 8.005283 92.194468 9.172151 88.298633 10.75307 84.51572 C 12.315168 80.732808 14.234855 77.1381 16.512131 73.731596 C 18.789407 70.325093 21.36781 67.163256 24.266161 64.264905 C 27.164512 61.385374 30.326349 58.788151 33.732852 56.510875 C 37.139356 54.233599 40.734064 52.313912 44.516976 50.751814 C 48.299889 49.189716 52.195724 48.004027 56.223303 47.194747 C 60.232061 46.404288 64.29728 46.009058 68.38132 46.009058 Z M 68.38132 46.009058 " stroke="#662d91" stroke-width="12" stroke-opacity="1" stroke-miterlimit="10"/></g><g clip-path="url(#13cbc92f3f)"><path fill="#ffffff" d="M 84.214844 5.886719 L 299.078125 5.886719 C 299.929688 5.886719 300.769531 5.96875 301.605469 6.136719 C 302.4375 6.300781 303.246094 6.546875 304.03125 6.875 C 304.820312 7.199219 305.566406 7.597656 306.273438 8.070312 C 306.980469 8.542969 307.632812 9.078125 308.234375 9.679688 C 308.835938 10.28125 309.371094 10.933594 309.84375 11.640625 C 310.316406 12.347656 310.714844 13.09375 311.039062 13.882812 C 311.367188 14.667969 311.613281 15.476562 311.777344 16.308594 C 311.945312 17.144531 312.027344 17.988281 312.027344 18.835938 L 312.027344 347.855469 C 312.027344 348.703125 311.945312 349.546875 311.777344 350.378906 C 311.613281 351.214844 311.367188 352.023438 311.039062 352.808594 C 310.714844 353.59375 310.316406 354.339844 309.84375 355.046875 C 309.371094 355.753906 308.835938 356.410156 308.234375 357.011719 C 307.632812 357.613281 306.980469 358.148438 306.273438 358.621094 C 305.566406 359.09375 304.820312 359.492188 304.03125 359.816406 C 303.246094 360.144531 302.4375 360.390625 301.605469 360.554688 C 300.769531 360.71875 299.929688 360.804688 299.078125 360.804688 L 84.214844 360.804688 C 83.363281 360.804688 82.523438 360.71875 81.6875 360.554688 C 80.855469 360.390625 80.042969 360.144531 79.257812 359.816406 C 78.472656 359.492188 77.726562 359.09375 77.019531 358.621094 C 76.3125 358.148438 75.660156 357.613281 75.058594 357.011719 C 74.457031 356.410156 73.917969 355.753906 73.445312 355.046875 C 72.976562 354.339844 72.574219 353.59375 72.25 352.808594 C 71.925781 352.023438 71.679688 351.214844 71.511719 350.378906 C 71.347656 349.546875 71.265625 348.703125 71.265625 347.855469 L 71.265625 18.835938 C 71.265625 17.988281 71.347656 17.144531 71.511719 16.308594 C 71.679688 15.476562 71.925781 14.667969 72.25 13.882812 C 72.574219 13.09375 72.976562 12.347656 73.445312 11.640625 C 73.917969 10.933594 74.457031 10.28125 75.058594 9.679688 C 75.660156 9.078125 76.3125 8.542969 77.019531 8.070312 C 77.726562 7.597656 78.472656 7.199219 79.257812 6.875 C 80.042969 6.546875 80.855469 6.300781 81.6875 6.136719 C 82.523438 5.96875 83.363281 5.886719 84.214844 5.886719 Z M 84.214844 5.886719 " fill-opacity="1" fill-rule="nonzero"/></g><g clip-path="url(#faf3a21892)"><path stroke-linecap="butt" transform="matrix(0.207553, 0, 0, 0.207553, 61.717383, 4.642071)" fill="none" stroke-linejoin="miter" d="M 108.39362 5.996759 L 1143.613055 5.996759 C 1147.715915 5.996759 1151.762315 6.391988 1155.789893 7.201268 C 1159.798651 7.991727 1163.694487 9.177416 1167.477399 10.758335 C 1171.279132 12.320433 1174.87384 14.24012 1178.280344 16.517396 C 1181.686847 18.794672 1184.829864 21.373075 1187.728215 24.271426 C 1190.626566 27.169777 1193.204969 30.312794 1195.482245 33.719297 C 1197.75952 37.1258 1199.679207 40.720508 1201.241305 44.522241 C 1202.822224 48.305154 1204.007913 52.200989 1204.798373 56.209748 C 1205.607652 60.237326 1206.002882 64.302546 1206.002882 68.386586 L 1206.002882 1653.615162 C 1206.002882 1657.699202 1205.607652 1661.764421 1204.798373 1665.773179 C 1204.007913 1669.800758 1202.822224 1673.696593 1201.241305 1677.479506 C 1199.679207 1681.262418 1197.75952 1684.857126 1195.482245 1688.26363 C 1193.204969 1691.670133 1190.626566 1694.83197 1187.728215 1697.730321 C 1184.829864 1700.628672 1181.686847 1703.207075 1178.280344 1705.484351 C 1174.87384 1707.761627 1171.279132 1709.681314 1167.477399 1711.243412 C 1163.694487 1712.824331 1159.798651 1714.01002 1155.789893 1714.800479 C 1151.762315 1715.590938 1147.715915 1716.004989 1143.613055 1716.004989 L 108.39362 1716.004989 C 104.290759 1716.004989 100.24436 1715.590938 96.216782 1714.800479 C 92.208023 1714.01002 88.293368 1712.824331 84.510455 1711.243412 C 80.727543 1709.681314 77.132835 1707.761627 73.726331 1705.484351 C 70.319828 1703.207075 67.176811 1700.628672 64.27846 1697.730321 C 61.380109 1694.83197 58.782885 1691.670133 56.50561 1688.26363 C 54.247154 1684.857126 52.308647 1681.262418 50.746549 1677.479506 C 49.184451 1673.696593 47.998762 1669.800758 47.189482 1665.773179 C 46.399022 1661.764421 46.003793 1657.699202 46.003793 1653.615162 L 46.003793 68.386586 C 46.003793 64.302546 46.399022 60.237326 47.189482 56.209748 C 47.998762 52.200989 49.184451 48.305154 50.746549 44.522241 C 52.308647 40.720508 54.247154 37.1258 56.50561 33.719297 C 58.782885 30.312794 61.380109 27.169777 64.27846 24.271426 C 67.176811 21.373075 70.319828 18.794672 73.726331 16.517396 C 77.132835 14.24012 80.727543 12.320433 84.510455 10.758335 C 88.293368 9.177416 92.208023 7.991727 96.216782 7.201268 C 100.24436 6.391988 104.290759 5.996759 108.39362 5.996759 Z M 108.39362 5.996759 " stroke="#662d91" stroke-width="12" stroke-opacity="1" stroke-miterlimit="10"/></g><path fill="#524780" d="M 71.28125 18.207031 C 71.28125 18.207031 70.953125 5.855469 83.597656 6.265625 C 96.242188 6.675781 203.140625 5.964844 203.140625 5.964844 L 299.277344 5.984375 C 299.277344 5.984375 311.300781 7.960938 311.300781 17.132812 C 311.300781 26.308594 310.863281 45.339844 310.863281 45.339844 L 71.050781 45.265625 C 71.050781 45.265625 69.945312 25.566406 71.28125 18.207031 Z M 71.28125 18.207031 " fill-opacity="1" fill-rule="nonzero"/><g clip-path="url(#785ddc2e01)"><path stroke-linecap="butt" transform="matrix(0.207553, 0, 0, 0.207553, 61.717383, 4.642071)" fill="none" stroke-linejoin="miter" d="M 44.968667 195.744642 L 1204.967757 195.744642 " stroke="#662d91" stroke-width="12" stroke-opacity="1" stroke-miterlimit="10"/></g><path stroke-linecap="round" transform="matrix(0.207553, 0, 0, 0.207553, 61.717383, 4.642071)" fill="none" stroke-linejoin="round" d="M 267.76528 345.743713 L 1147.753556 345.743713 " stroke="#662d91" stroke-width="12" stroke-opacity="1" stroke-miterlimit="4"/><path stroke-linecap="round" transform="matrix(0.207553, 0, 0, 0.207553, 61.717383, 4.642071)" fill="none" stroke-linejoin="round" d="M 267.76528 495.742784 L 1147.753556 495.742784 " stroke="#662d91" stroke-width="12" stroke-opacity="1" stroke-miterlimit="4"/><path stroke-linecap="round" transform="matrix(0.207553, 0, 0, 0.207553, 61.717383, 4.642071)" fill="none" stroke-linejoin="round" d="M 267.76528 645.741855 L 1147.753556 645.741855 " stroke="#662d91" stroke-width="12" stroke-opacity="1" stroke-miterlimit="4"/><path stroke-linecap="round" transform="matrix(0.207553, 0, 0, 0.207553, 61.717383, 4.642071)" fill="none" stroke-linejoin="round" d="M 267.76528 795.740926 L 1147.753556 795.740926 " stroke="#662d91" stroke-width="12" stroke-opacity="1" stroke-miterlimit="4"/><path stroke-linecap="round" transform="matrix(0.207553, 0, 0, 0.207553, 61.717383, 4.642071)" fill="none" stroke-linejoin="round" d="M 267.76528 945.739997 L 1147.753556 945.739997 " stroke="#662d91" stroke-width="12" stroke-opacity="1" stroke-miterlimit="4"/><path stroke-linecap="round" transform="matrix(0.207553, 0, 0, 0.207553, 61.717383, 4.642071)" fill="none" stroke-linejoin="round" d="M 267.76528 1095.739068 L 1147.753556 1095.739068 " stroke="#662d91" stroke-width="12" stroke-opacity="1" stroke-miterlimit="4"/><path stroke-linecap="round" transform="matrix(0.207553, 0, 0, 0.207553, 61.717383, 4.642071)" fill="none" stroke-linejoin="round" d="M 267.76528 1245.738139 L 1147.753556 1245.738139 " stroke="#662d91" stroke-width="12" stroke-opacity="1" stroke-miterlimit="4"/><path stroke-linecap="round" transform="matrix(0.207553, 0, 0, 0.207553, 61.717383, 4.642071)" fill="none" stroke-linejoin="round" d="M 267.76528 1395.73721 L 1147.753556 1395.73721 " stroke="#662d91" stroke-width="12" stroke-opacity="1" stroke-miterlimit="4"/><path stroke-linecap="round" transform="matrix(0.207553, 0, 0, 0.207553, 61.717383, 4.642071)" fill="none" stroke-linejoin="round" d="M 267.76528 1545.736281 L 1147.753556 1545.736281 " stroke="#662d91" stroke-width="12" stroke-opacity="1" stroke-miterlimit="4"/><g clip-path="url(#6e5bca1fb1)"><path stroke-linecap="butt" transform="matrix(0.207553, 0, 0, 0.207553, 61.717383, 4.642071)" fill="none" stroke-linejoin="miter" d="M 108.39362 5.996759 L 1143.613055 5.996759 C 1147.715915 5.996759 1151.762315 6.391988 1155.789893 7.201268 C 1159.798651 7.991727 1163.694487 9.177416 1167.477399 10.758335 C 1171.279132 12.320433 1174.87384 14.24012 1178.280344 16.517396 C 1181.686847 18.794672 1184.829864 21.373075 1187.728215 24.271426 C 1190.626566 27.169777 1193.204969 30.312794 1195.482245 33.719297 C 1197.75952 37.1258 1199.679207 40.720508 1201.241305 44.522241 C 1202.822224 48.305154 1204.007913 52.200989 1204.798373 56.209748 C 1205.607652 60.237326 1206.002882 64.302546 1206.002882 68.386586 L 1206.002882 1653.615162 C 1206.002882 1657.699202 1205.607652 1661.764421 1204.798373 1665.773179 C 1204.007913 1669.800758 1202.822224 1673.696593 1201.241305 1677.479506 C 1199.679207 1681.262418 1197.75952 1684.857126 1195.482245 1688.26363 C 1193.204969 1691.670133 1190.626566 1694.83197 1187.728215 1697.730321 C 1184.829864 1700.628672 1181.686847 1703.207075 1178.280344 1705.484351 C 1174.87384 1707.761627 1171.279132 1709.681314 1167.477399 1711.243412 C 1163.694487 1712.824331 1159.798651 1714.01002 1155.789893 1714.800479 C 1151.762315 1715.590938 1147.715915 1716.004989 1143.613055 1716.004989 L 108.39362 1716.004989 C 104.290759 1716.004989 100.24436 1715.590938 96.216782 1714.800479 C 92.208023 1714.01002 88.293368 1712.824331 84.510455 1711.243412 C 80.727543 1709.681314 77.132835 1707.761627 73.726331 1705.484351 C 70.319828 1703.207075 67.176811 1700.628672 64.27846 1697.730321 C 61.380109 1694.83197 58.782885 1691.670133 56.50561 1688.26363 C 54.247154 1684.857126 52.308647 1681.262418 50.746549 1677.479506 C 49.184451 1673.696593 47.998762 1669.800758 47.189482 1665.773179 C 46.399022 1661.764421 46.003793 1657.699202 46.003793 1653.615162 L 46.003793 68.386586 C 46.003793 64.302546 46.399022 60.237326 47.189482 56.209748 C 47.998762 52.200989 49.184451 48.305154 50.746549 44.522241 C 52.308647 40.720508 54.247154 37.1258 56.50561 33.719297 C 58.782885 30.312794 61.380109 27.169777 64.27846 24.271426 C 67.176811 21.373075 70.319828 18.794672 73.726331 16.517396 C 77.132835 14.24012 80.727543 12.320433 84.510455 10.758335 C 88.293368 9.177416 92.208023 7.991727 96.216782 7.201268 C 100.24436 6.391988 104.290759 5.996759 108.39362 5.996759 Z M 108.39362 5.996759 " stroke="#662d91" stroke-width="12" stroke-opacity="1" stroke-miterlimit="10"/></g><g clip-path="url(#9eca818e92)"><path fill="#524780" d="M 105.667969 68.582031 C 105.667969 69.152344 105.613281 69.71875 105.5 70.28125 C 105.390625 70.84375 105.222656 71.386719 105.003906 71.917969 C 104.785156 72.445312 104.519531 72.949219 104.199219 73.425781 C 103.882812 73.898438 103.519531 74.339844 103.117188 74.746094 C 102.710938 75.148438 102.269531 75.511719 101.792969 75.828125 C 101.320312 76.148438 100.816406 76.414062 100.289062 76.632812 C 99.757812 76.855469 99.214844 77.019531 98.652344 77.128906 C 98.089844 77.242188 97.523438 77.296875 96.953125 77.296875 C 96.378906 77.296875 95.8125 77.242188 95.25 77.128906 C 94.691406 77.019531 94.144531 76.855469 93.617188 76.632812 C 93.085938 76.414062 92.585938 76.148438 92.109375 75.828125 C 91.632812 75.511719 91.191406 75.148438 90.789062 74.746094 C 90.382812 74.339844 90.023438 73.898438 89.703125 73.425781 C 89.386719 72.949219 89.117188 72.445312 88.898438 71.917969 C 88.679688 71.386719 88.511719 70.84375 88.402344 70.28125 C 88.289062 69.71875 88.234375 69.152344 88.234375 68.582031 C 88.234375 68.007812 88.289062 67.441406 88.402344 66.878906 C 88.511719 66.320312 88.679688 65.773438 88.898438 65.246094 C 89.117188 64.714844 89.386719 64.214844 89.703125 63.738281 C 90.023438 63.261719 90.382812 62.820312 90.789062 62.417969 C 91.191406 62.011719 91.632812 61.652344 92.109375 61.332031 C 92.585938 61.015625 93.085938 60.746094 93.617188 60.527344 C 94.144531 60.308594 94.691406 60.144531 95.25 60.03125 C 95.8125 59.917969 96.378906 59.863281 96.953125 59.863281 C 97.523438 59.863281 98.089844 59.917969 98.652344 60.03125 C 99.214844 60.144531 99.757812 60.308594 100.289062 60.527344 C 100.816406 60.746094 101.320312 61.015625 101.792969 61.332031 C 102.269531 61.652344 102.710938 62.011719 103.117188 62.417969 C 103.519531 62.820312 103.882812 63.261719 104.199219 63.738281 C 104.519531 64.214844 104.785156 64.714844 105.003906 65.246094 C 105.222656 65.773438 105.390625 66.320312 105.5 66.878906 C 105.613281 67.441406 105.667969 68.007812 105.667969 68.582031 Z M 105.667969 68.582031 " fill-opacity="1" fill-rule="nonzero"/></g><g clip-path="url(#8b021d61e6)"><path fill="#524780" d="M 105.667969 99.714844 C 105.667969 100.285156 105.613281 100.851562 105.5 101.414062 C 105.390625 101.976562 105.222656 102.519531 105.003906 103.050781 C 104.785156 103.578125 104.519531 104.082031 104.199219 104.558594 C 103.882812 105.03125 103.519531 105.472656 103.117188 105.878906 C 102.710938 106.28125 102.269531 106.644531 101.792969 106.960938 C 101.320312 107.28125 100.816406 107.546875 100.289062 107.769531 C 99.757812 107.988281 99.214844 108.152344 98.652344 108.265625 C 98.089844 108.375 97.523438 108.429688 96.953125 108.429688 C 96.378906 108.429688 95.8125 108.375 95.25 108.265625 C 94.691406 108.152344 94.144531 107.988281 93.617188 107.769531 C 93.085938 107.546875 92.585938 107.28125 92.109375 106.960938 C 91.632812 106.644531 91.191406 106.28125 90.789062 105.878906 C 90.382812 105.472656 90.023438 105.03125 89.703125 104.558594 C 89.386719 104.082031 89.117188 103.578125 88.898438 103.050781 C 88.679688 102.519531 88.511719 101.976562 88.402344 101.414062 C 88.289062 100.851562 88.234375 100.285156 88.234375 99.714844 C 88.234375 99.140625 88.289062 98.574219 88.402344 98.011719 C 88.511719 97.453125 88.679688 96.90625 88.898438 96.378906 C 89.117188 95.847656 89.386719 95.347656 89.703125 94.871094 C 90.023438 94.394531 90.382812 93.953125 90.789062 93.550781 C 91.191406 93.144531 91.632812 92.785156 92.109375 92.464844 C 92.585938 92.148438 93.085938 91.878906 93.617188 91.660156 C 94.144531 91.441406 94.691406 91.277344 95.25 91.164062 C 95.8125 91.050781 96.378906 90.996094 96.953125 90.996094 C 97.523438 90.996094 98.089844 91.050781 98.652344 91.164062 C 99.214844 91.277344 99.757812 91.441406 100.289062 91.660156 C 100.816406 91.878906 101.320312 92.148438 101.792969 92.464844 C 102.269531 92.785156 102.710938 93.144531 103.117188 93.550781 C 103.519531 93.953125 103.882812 94.394531 104.199219 94.871094 C 104.519531 95.347656 104.785156 95.847656 105.003906 96.378906 C 105.222656 96.90625 105.390625 97.453125 105.5 98.011719 C 105.613281 98.574219 105.667969 99.140625 105.667969 99.714844 Z M 105.667969 99.714844 " fill-opacity="1" fill-rule="nonzero"/></g><g clip-path="url(#0e9ad58cd3)"><path fill="#524780" d="M 105.667969 130.847656 C 105.667969 131.417969 105.613281 131.984375 105.5 132.546875 C 105.390625 133.109375 105.222656 133.652344 105.003906 134.183594 C 104.785156 134.710938 104.519531 135.214844 104.199219 135.691406 C 103.882812 136.164062 103.519531 136.605469 103.117188 137.011719 C 102.710938 137.414062 102.269531 137.777344 101.792969 138.09375 C 101.320312 138.414062 100.816406 138.679688 100.289062 138.902344 C 99.757812 139.121094 99.214844 139.285156 98.652344 139.398438 C 98.089844 139.507812 97.523438 139.5625 96.953125 139.5625 C 96.378906 139.5625 95.8125 139.507812 95.25 139.398438 C 94.691406 139.285156 94.144531 139.121094 93.617188 138.902344 C 93.085938 138.679688 92.585938 138.414062 92.109375 138.09375 C 91.632812 137.777344 91.191406 137.414062 90.789062 137.011719 C 90.382812 136.605469 90.023438 136.164062 89.703125 135.691406 C 89.386719 135.214844 89.117188 134.710938 88.898438 134.183594 C 88.679688 133.652344 88.511719 133.109375 88.402344 132.546875 C 88.289062 131.984375 88.234375 131.417969 88.234375 130.847656 C 88.234375 130.273438 88.289062 129.707031 88.402344 129.144531 C 88.511719 128.585938 88.679688 128.039062 88.898438 127.511719 C 89.117188 126.980469 89.386719 126.480469 89.703125 126.003906 C 90.023438 125.527344 90.382812 125.085938 90.789062 124.683594 C 91.191406 124.277344 91.632812 123.917969 92.109375 123.597656 C 92.585938 123.28125 93.085938 123.011719 93.617188 122.792969 C 94.144531 122.574219 94.691406 122.410156 95.25 122.296875 C 95.8125 122.1875 96.378906 122.128906 96.953125 122.128906 C 97.523438 122.128906 98.089844 122.1875 98.652344 122.296875 C 99.214844 122.410156 99.757812 122.574219 100.289062 122.792969 C 100.816406 123.011719 101.320312 123.28125 101.792969 123.597656 C 102.269531 123.917969 102.710938 124.277344 103.117188 124.683594 C 103.519531 125.085938 103.882812 125.527344 104.199219 126.003906 C 104.519531 126.480469 104.785156 126.980469 105.003906 127.511719 C 105.222656 128.039062 105.390625 128.585938 105.5 129.144531 C 105.613281 129.707031 105.667969 130.273438 105.667969 130.847656 Z M 105.667969 130.847656 " fill-opacity="1" fill-rule="nonzero"/></g><g clip-path="url(#885e0fc4f0)"><path fill="#524780" d="M 105.667969 161.980469 C 105.667969 162.550781 105.613281 163.121094 105.5 163.679688 C 105.390625 164.242188 105.222656 164.785156 105.003906 165.316406 C 104.785156 165.84375 104.519531 166.347656 104.199219 166.824219 C 103.882812 167.300781 103.519531 167.738281 103.117188 168.144531 C 102.710938 168.546875 102.269531 168.910156 101.792969 169.226562 C 101.320312 169.546875 100.816406 169.816406 100.289062 170.035156 C 99.757812 170.253906 99.214844 170.417969 98.652344 170.53125 C 98.089844 170.640625 97.523438 170.695312 96.953125 170.695312 C 96.378906 170.695312 95.8125 170.640625 95.25 170.53125 C 94.691406 170.417969 94.144531 170.253906 93.617188 170.035156 C 93.085938 169.816406 92.585938 169.546875 92.109375 169.226562 C 91.632812 168.910156 91.191406 168.546875 90.789062 168.144531 C 90.382812 167.738281 90.023438 167.300781 89.703125 166.824219 C 89.386719 166.347656 89.117188 165.84375 88.898438 165.316406 C 88.679688 164.785156 88.511719 164.242188 88.402344 163.679688 C 88.289062 163.121094 88.234375 162.550781 88.234375 161.980469 C 88.234375 161.40625 88.289062 160.839844 88.402344 160.28125 C 88.511719 159.71875 88.679688 159.171875 88.898438 158.644531 C 89.117188 158.113281 89.386719 157.613281 89.703125 157.136719 C 90.023438 156.660156 90.382812 156.21875 90.789062 155.816406 C 91.191406 155.410156 91.632812 155.050781 92.109375 154.730469 C 92.585938 154.414062 93.085938 154.144531 93.617188 153.925781 C 94.144531 153.707031 94.691406 153.542969 95.25 153.429688 C 95.8125 153.320312 96.378906 153.261719 96.953125 153.261719 C 97.523438 153.261719 98.089844 153.320312 98.652344 153.429688 C 99.214844 153.542969 99.757812 153.707031 100.289062 153.925781 C 100.816406 154.144531 101.320312 154.414062 101.792969 154.730469 C 102.269531 155.050781 102.710938 155.410156 103.117188 155.816406 C 103.519531 156.21875 103.882812 156.660156 104.199219 157.136719 C 104.519531 157.613281 104.785156 158.113281 105.003906 158.644531 C 105.222656 159.171875 105.390625 159.71875 105.5 160.28125 C 105.613281 160.839844 105.667969 161.40625 105.667969 161.980469 Z M 105.667969 161.980469 " fill-opacity="1" fill-rule="nonzero"/></g><g clip-path="url(#678fd2af2c)"><path fill="#524780" d="M 105.667969 193.113281 C 105.667969 193.683594 105.613281 194.253906 105.5 194.8125 C 105.390625 195.375 105.222656 195.921875 105.003906 196.449219 C 104.785156 196.976562 104.519531 197.480469 104.199219 197.957031 C 103.882812 198.433594 103.519531 198.871094 103.117188 199.277344 C 102.710938 199.683594 102.269531 200.042969 101.792969 200.359375 C 101.320312 200.679688 100.816406 200.949219 100.289062 201.167969 C 99.757812 201.386719 99.214844 201.550781 98.652344 201.664062 C 98.089844 201.773438 97.523438 201.832031 96.953125 201.832031 C 96.378906 201.832031 95.8125 201.773438 95.25 201.664062 C 94.691406 201.550781 94.144531 201.386719 93.617188 201.167969 C 93.085938 200.949219 92.585938 200.679688 92.109375 200.359375 C 91.632812 200.042969 91.191406 199.683594 90.789062 199.277344 C 90.382812 198.871094 90.023438 198.433594 89.703125 197.957031 C 89.386719 197.480469 89.117188 196.976562 88.898438 196.449219 C 88.679688 195.921875 88.511719 195.375 88.402344 194.8125 C 88.289062 194.253906 88.234375 193.683594 88.234375 193.113281 C 88.234375 192.539062 88.289062 191.972656 88.402344 191.414062 C 88.511719 190.851562 88.679688 190.304688 88.898438 189.777344 C 89.117188 189.25 89.386719 188.746094 89.703125 188.269531 C 90.023438 187.792969 90.382812 187.355469 90.789062 186.949219 C 91.191406 186.542969 91.632812 186.183594 92.109375 185.863281 C 92.585938 185.546875 93.085938 185.277344 93.617188 185.058594 C 94.144531 184.839844 94.691406 184.675781 95.25 184.5625 C 95.8125 184.453125 96.378906 184.394531 96.953125 184.394531 C 97.523438 184.394531 98.089844 184.453125 98.652344 184.5625 C 99.214844 184.675781 99.757812 184.839844 100.289062 185.058594 C 100.816406 185.277344 101.320312 185.546875 101.792969 185.863281 C 102.269531 186.183594 102.710938 186.542969 103.117188 186.949219 C 103.519531 187.355469 103.882812 187.792969 104.199219 188.269531 C 104.519531 188.746094 104.785156 189.25 105.003906 189.777344 C 105.222656 190.304688 105.390625 190.851562 105.5 191.414062 C 105.613281 191.972656 105.667969 192.539062 105.667969 193.113281 Z M 105.667969 193.113281 " fill-opacity="1" fill-rule="nonzero"/></g><g clip-path="url(#ce5ca2c761)"><path fill="#524780" d="M 105.667969 224.246094 C 105.667969 224.820312 105.613281 225.386719 105.5 225.945312 C 105.390625 226.507812 105.222656 227.054688 105.003906 227.582031 C 104.785156 228.109375 104.519531 228.613281 104.199219 229.089844 C 103.882812 229.566406 103.519531 230.003906 103.117188 230.410156 C 102.710938 230.816406 102.269531 231.175781 101.792969 231.492188 C 101.320312 231.8125 100.816406 232.082031 100.289062 232.300781 C 99.757812 232.519531 99.214844 232.683594 98.652344 232.796875 C 98.089844 232.90625 97.523438 232.964844 96.953125 232.964844 C 96.378906 232.964844 95.8125 232.90625 95.25 232.796875 C 94.691406 232.683594 94.144531 232.519531 93.617188 232.300781 C 93.085938 232.082031 92.585938 231.8125 92.109375 231.492188 C 91.632812 231.175781 91.191406 230.816406 90.789062 230.410156 C 90.382812 230.003906 90.023438 229.566406 89.703125 229.089844 C 89.386719 228.613281 89.117188 228.109375 88.898438 227.582031 C 88.679688 227.054688 88.511719 226.507812 88.402344 225.945312 C 88.289062 225.386719 88.234375 224.820312 88.234375 224.246094 C 88.234375 223.671875 88.289062 223.105469 88.402344 222.546875 C 88.511719 221.984375 88.679688 221.4375 88.898438 220.910156 C 89.117188 220.382812 89.386719 219.878906 89.703125 219.402344 C 90.023438 218.925781 90.382812 218.488281 90.789062 218.082031 C 91.191406 217.675781 91.632812 217.316406 92.109375 216.996094 C 92.585938 216.679688 93.085938 216.410156 93.617188 216.191406 C 94.144531 215.972656 94.691406 215.808594 95.25 215.695312 C 95.8125 215.585938 96.378906 215.527344 96.953125 215.527344 C 97.523438 215.527344 98.089844 215.585938 98.652344 215.695312 C 99.214844 215.808594 99.757812 215.972656 100.289062 216.191406 C 100.816406 216.410156 101.320312 216.679688 101.792969 216.996094 C 102.269531 217.316406 102.710938 217.675781 103.117188 218.082031 C 103.519531 218.488281 103.882812 218.925781 104.199219 219.402344 C 104.519531 219.878906 104.785156 220.382812 105.003906 220.910156 C 105.222656 221.4375 105.390625 221.984375 105.5 222.546875 C 105.613281 223.105469 105.667969 223.671875 105.667969 224.246094 Z M 105.667969 224.246094 " fill-opacity="1" fill-rule="nonzero"/></g><g clip-path="url(#6fadf59dcb)"><path fill="#524780" d="M 105.667969 255.378906 C 105.667969 255.953125 105.613281 256.519531 105.5 257.078125 C 105.390625 257.640625 105.222656 258.1875 105.003906 258.714844 C 104.785156 259.242188 104.519531 259.746094 104.199219 260.222656 C 103.882812 260.699219 103.519531 261.136719 103.117188 261.542969 C 102.710938 261.949219 102.269531 262.308594 101.792969 262.628906 C 101.320312 262.945312 100.816406 263.214844 100.289062 263.433594 C 99.757812 263.652344 99.214844 263.816406 98.652344 263.929688 C 98.089844 264.039062 97.523438 264.097656 96.953125 264.097656 C 96.378906 264.097656 95.8125 264.039062 95.25 263.929688 C 94.691406 263.816406 94.144531 263.652344 93.617188 263.433594 C 93.085938 263.214844 92.585938 262.945312 92.109375 262.628906 C 91.632812 262.308594 91.191406 261.949219 90.789062 261.542969 C 90.382812 261.136719 90.023438 260.699219 89.703125 260.222656 C 89.386719 259.746094 89.117188 259.242188 88.898438 258.714844 C 88.679688 258.1875 88.511719 257.640625 88.402344 257.078125 C 88.289062 256.519531 88.234375 255.953125 88.234375 255.378906 C 88.234375 254.804688 88.289062 254.238281 88.402344 253.679688 C 88.511719 253.117188 88.679688 252.570312 88.898438 252.042969 C 89.117188 251.515625 89.386719 251.011719 89.703125 250.535156 C 90.023438 250.058594 90.382812 249.621094 90.789062 249.214844 C 91.191406 248.808594 91.632812 248.449219 92.109375 248.128906 C 92.585938 247.8125 93.085938 247.542969 93.617188 247.324219 C 94.144531 247.105469 94.691406 246.941406 95.25 246.828125 C 95.8125 246.71875 96.378906 246.660156 96.953125 246.660156 C 97.523438 246.660156 98.089844 246.71875 98.652344 246.828125 C 99.214844 246.941406 99.757812 247.105469 100.289062 247.324219 C 100.816406 247.542969 101.320312 247.8125 101.792969 248.128906 C 102.269531 248.449219 102.710938 248.808594 103.117188 249.214844 C 103.519531 249.621094 103.882812 250.058594 104.199219 250.535156 C 104.519531 251.011719 104.785156 251.515625 105.003906 252.042969 C 105.222656 252.570312 105.390625 253.117188 105.5 253.679688 C 105.613281 254.238281 105.667969 254.804688 105.667969 255.378906 Z M 105.667969 255.378906 " fill-opacity="1" fill-rule="nonzero"/></g><g clip-path="url(#3b98b293f0)"><path fill="#524780" d="M 105.667969 286.511719 C 105.667969 287.085938 105.613281 287.652344 105.5 288.210938 C 105.390625 288.773438 105.222656 289.320312 105.003906 289.847656 C 104.785156 290.375 104.519531 290.878906 104.199219 291.355469 C 103.882812 291.832031 103.519531 292.269531 103.117188 292.675781 C 102.710938 293.082031 102.269531 293.441406 101.792969 293.761719 C 101.320312 294.078125 100.816406 294.347656 100.289062 294.566406 C 99.757812 294.785156 99.214844 294.949219 98.652344 295.0625 C 98.089844 295.171875 97.523438 295.230469 96.953125 295.230469 C 96.378906 295.230469 95.8125 295.171875 95.25 295.0625 C 94.691406 294.949219 94.144531 294.785156 93.617188 294.566406 C 93.085938 294.347656 92.585938 294.078125 92.109375 293.761719 C 91.632812 293.441406 91.191406 293.082031 90.789062 292.675781 C 90.382812 292.269531 90.023438 291.832031 89.703125 291.355469 C 89.386719 290.878906 89.117188 290.375 88.898438 289.847656 C 88.679688 289.320312 88.511719 288.773438 88.402344 288.210938 C 88.289062 287.652344 88.234375 287.085938 88.234375 286.511719 C 88.234375 285.941406 88.289062 285.371094 88.402344 284.8125 C 88.511719 284.25 88.679688 283.703125 88.898438 283.175781 C 89.117188 282.648438 89.386719 282.144531 89.703125 281.667969 C 90.023438 281.191406 90.382812 280.753906 90.789062 280.347656 C 91.191406 279.941406 91.632812 279.582031 92.109375 279.265625 C 92.585938 278.945312 93.085938 278.675781 93.617188 278.457031 C 94.144531 278.238281 94.691406 278.074219 95.25 277.960938 C 95.8125 277.851562 96.378906 277.792969 96.953125 277.792969 C 97.523438 277.792969 98.089844 277.851562 98.652344 277.960938 C 99.214844 278.074219 99.757812 278.238281 100.289062 278.457031 C 100.816406 278.675781 101.320312 278.945312 101.792969 279.265625 C 102.269531 279.582031 102.710938 279.941406 103.117188 280.347656 C 103.519531 280.753906 103.882812 281.191406 104.199219 281.667969 C 104.519531 282.144531 104.785156 282.648438 105.003906 283.175781 C 105.222656 283.703125 105.390625 284.25 105.5 284.8125 C 105.613281 285.371094 105.667969 285.941406 105.667969 286.511719 Z M 105.667969 286.511719 " fill-opacity="1" fill-rule="nonzero"/></g><g clip-path="url(#68a6d9f52a)"><path fill="#524780" d="M 105.667969 317.644531 C 105.667969 318.21875 105.613281 318.785156 105.5 319.34375 C 105.390625 319.90625 105.222656 320.453125 105.003906 320.980469 C 104.785156 321.507812 104.519531 322.011719 104.199219 322.488281 C 103.882812 322.964844 103.519531 323.402344 103.117188 323.808594 C 102.710938 324.214844 102.269531 324.574219 101.792969 324.894531 C 101.320312 325.210938 100.816406 325.480469 100.289062 325.699219 C 99.757812 325.917969 99.214844 326.082031 98.652344 326.195312 C 98.089844 326.304688 97.523438 326.363281 96.953125 326.363281 C 96.378906 326.363281 95.8125 326.304688 95.25 326.195312 C 94.691406 326.082031 94.144531 325.917969 93.617188 325.699219 C 93.085938 325.480469 92.585938 325.210938 92.109375 324.894531 C 91.632812 324.574219 91.191406 324.214844 90.789062 323.808594 C 90.382812 323.402344 90.023438 322.964844 89.703125 322.488281 C 89.386719 322.011719 89.117188 321.507812 88.898438 320.980469 C 88.679688 320.453125 88.511719 319.90625 88.402344 319.34375 C 88.289062 318.785156 88.234375 318.21875 88.234375 317.644531 C 88.234375 317.074219 88.289062 316.503906 88.402344 315.945312 C 88.511719 315.382812 88.679688 314.835938 88.898438 314.308594 C 89.117188 313.78125 89.386719 313.277344 89.703125 312.800781 C 90.023438 312.324219 90.382812 311.886719 90.789062 311.480469 C 91.191406 311.078125 91.632812 310.714844 92.109375 310.398438 C 92.585938 310.078125 93.085938 309.808594 93.617188 309.589844 C 94.144531 309.371094 94.691406 309.207031 95.25 309.09375 C 95.8125 308.984375 96.378906 308.929688 96.953125 308.929688 C 97.523438 308.929688 98.089844 308.984375 98.652344 309.09375 C 99.214844 309.207031 99.757812 309.371094 100.289062 309.589844 C 100.816406 309.808594 101.320312 310.078125 101.792969 310.398438 C 102.269531 310.714844 102.710938 311.078125 103.117188 311.480469 C 103.519531 311.886719 103.882812 312.324219 104.199219 312.800781 C 104.519531 313.277344 104.785156 313.78125 105.003906 314.308594 C 105.222656 314.835938 105.390625 315.382812 105.5 315.945312 C 105.613281 316.503906 105.667969 317.074219 105.667969 317.644531 Z M 105.667969 317.644531 " fill-opacity="1" fill-rule="nonzero"/></g><g fill="#662d91" fill-opacity="1"><g transform="translate(283.645884, 32.549698)"><g><path d="M 12.484375 -0.5625 L 12.484375 0 L 7.15625 0 L 7.15625 -0.5625 L 8.71875 -0.84375 L 6 -5.015625 L 2.828125 -0.828125 L 4.453125 -0.5625 L 4.453125 0 L 0.21875 0 L 0.21875 -0.5625 L 1.59375 -0.765625 L 5.453125 -5.859375 L 2.046875 -10.859375 L 0.65625 -11.171875 L 0.65625 -11.734375 L 5.984375 -11.734375 L 5.984375 -11.171875 L 4.421875 -10.84375 L 6.6875 -7.46875 L 9.28125 -10.859375 L 7.671875 -11.171875 L 7.671875 -11.734375 L 11.890625 -11.734375 L 11.890625 -11.171875 L 10.546875 -10.921875 L 7.25 -6.640625 L 11.109375 -0.828125 Z M 12.484375 -0.5625 "/></g></g></g><g fill="#ffffff" fill-opacity="1"><g transform="translate(129.091066, 29.788946)"><g><path d="M 1.578125 0 L 1.578125 -11.421875 L 2.90625 -11.421875 L 2.90625 -1.203125 L 7.9375 -1.203125 L 7.9375 0 Z M 1.578125 0 "/></g></g></g><g fill="#ffffff" fill-opacity="1"><g transform="translate(137.393732, 29.788946)"><g><path d="M 2.671875 0 L 1.375 0 L 1.375 -8.5625 L 2.671875 -8.5625 Z M 1.265625 -10.890625 C 1.265625 -11.179688 1.335938 -11.394531 1.484375 -11.53125 C 1.628906 -11.675781 1.8125 -11.75 2.03125 -11.75 C 2.238281 -11.75 2.414062 -11.675781 2.5625 -11.53125 C 2.71875 -11.394531 2.796875 -11.179688 2.796875 -10.890625 C 2.796875 -10.597656 2.71875 -10.378906 2.5625 -10.234375 C 2.414062 -10.085938 2.238281 -10.015625 2.03125 -10.015625 C 1.8125 -10.015625 1.628906 -10.085938 1.484375 -10.234375 C 1.335938 -10.378906 1.265625 -10.597656 1.265625 -10.890625 Z M 1.265625 -10.890625 "/></g></g></g><g fill="#ffffff" fill-opacity="1"><g transform="translate(141.439618, 29.788946)"><g><path d="M 6.90625 -2.34375 C 6.90625 -1.539062 6.609375 -0.921875 6.015625 -0.484375 C 5.421875 -0.0546875 4.585938 0.15625 3.515625 0.15625 C 2.378906 0.15625 1.492188 -0.0234375 0.859375 -0.390625 L 0.859375 -1.59375 C 1.265625 -1.382812 1.703125 -1.21875 2.171875 -1.09375 C 2.648438 -0.976562 3.109375 -0.921875 3.546875 -0.921875 C 4.222656 -0.921875 4.742188 -1.023438 5.109375 -1.234375 C 5.472656 -1.453125 5.65625 -1.785156 5.65625 -2.234375 C 5.65625 -2.566406 5.507812 -2.847656 5.21875 -3.078125 C 4.925781 -3.316406 4.363281 -3.597656 3.53125 -3.921875 C 2.726562 -4.222656 2.160156 -4.484375 1.828125 -4.703125 C 1.492188 -4.921875 1.242188 -5.171875 1.078125 -5.453125 C 0.910156 -5.734375 0.828125 -6.070312 0.828125 -6.46875 C 0.828125 -7.164062 1.109375 -7.710938 1.671875 -8.109375 C 2.242188 -8.515625 3.023438 -8.71875 4.015625 -8.71875 C 4.941406 -8.71875 5.84375 -8.53125 6.71875 -8.15625 L 6.265625 -7.109375 C 5.398438 -7.460938 4.617188 -7.640625 3.921875 -7.640625 C 3.304688 -7.640625 2.84375 -7.539062 2.53125 -7.34375 C 2.21875 -7.15625 2.0625 -6.890625 2.0625 -6.546875 C 2.0625 -6.316406 2.117188 -6.117188 2.234375 -5.953125 C 2.359375 -5.796875 2.550781 -5.644531 2.8125 -5.5 C 3.070312 -5.351562 3.570312 -5.144531 4.3125 -4.875 C 5.320312 -4.5 6.003906 -4.125 6.359375 -3.75 C 6.722656 -3.375 6.90625 -2.90625 6.90625 -2.34375 Z M 6.90625 -2.34375 "/></g></g></g><g fill="#ffffff" fill-opacity="1"><g transform="translate(149.070573, 29.788946)"><g><path d="M 4.140625 -0.921875 C 4.367188 -0.921875 4.585938 -0.9375 4.796875 -0.96875 C 5.015625 -1 5.1875 -1.035156 5.3125 -1.078125 L 5.3125 -0.078125 C 5.175781 -0.00390625 4.96875 0.0507812 4.6875 0.09375 C 4.414062 0.132812 4.171875 0.15625 3.953125 0.15625 C 2.296875 0.15625 1.46875 -0.71875 1.46875 -2.46875 L 1.46875 -7.5625 L 0.25 -7.5625 L 0.25 -8.1875 L 1.46875 -8.71875 L 2.015625 -10.546875 L 2.765625 -10.546875 L 2.765625 -8.5625 L 5.25 -8.5625 L 5.25 -7.5625 L 2.765625 -7.5625 L 2.765625 -2.515625 C 2.765625 -2.003906 2.882812 -1.609375 3.125 -1.328125 C 3.375 -1.054688 3.710938 -0.921875 4.140625 -0.921875 Z M 4.140625 -0.921875 "/></g></g></g><g fill="#ffffff" fill-opacity="1"><g transform="translate(154.717636, 29.788946)"><g><path d="M 6.640625 0 L 6.390625 -1.21875 L 6.328125 -1.21875 C 5.898438 -0.6875 5.472656 -0.320312 5.046875 -0.125 C 4.617188 0.0625 4.085938 0.15625 3.453125 0.15625 C 2.609375 0.15625 1.941406 -0.0625 1.453125 -0.5 C 0.972656 -0.9375 0.734375 -1.5625 0.734375 -2.375 C 0.734375 -4.101562 2.117188 -5.007812 4.890625 -5.09375 L 6.34375 -5.140625 L 6.34375 -5.671875 C 6.34375 -6.335938 6.195312 -6.832031 5.90625 -7.15625 C 5.613281 -7.476562 5.148438 -7.640625 4.515625 -7.640625 C 3.804688 -7.640625 3 -7.421875 2.09375 -6.984375 L 1.703125 -7.96875 C 2.117188 -8.195312 2.578125 -8.375 3.078125 -8.5 C 3.585938 -8.632812 4.09375 -8.703125 4.59375 -8.703125 C 5.613281 -8.703125 6.367188 -8.472656 6.859375 -8.015625 C 7.359375 -7.566406 7.609375 -6.84375 7.609375 -5.84375 L 7.609375 0 Z M 3.71875 -0.921875 C 4.519531 -0.921875 5.148438 -1.140625 5.609375 -1.578125 C 6.078125 -2.023438 6.3125 -2.644531 6.3125 -3.4375 L 6.3125 -4.21875 L 5.015625 -4.15625 C 3.984375 -4.125 3.238281 -3.960938 2.78125 -3.671875 C 2.320312 -3.390625 2.09375 -2.953125 2.09375 -2.359375 C 2.09375 -1.890625 2.234375 -1.53125 2.515625 -1.28125 C 2.804688 -1.039062 3.207031 -0.921875 3.71875 -0.921875 Z M 3.71875 -0.921875 "/></g></g></g><g fill="#ffffff" fill-opacity="1"><g transform="translate(163.613906, 29.788946)"><g/></g></g><g fill="#ffffff" fill-opacity="1"><g transform="translate(167.769141, 29.788946)"><g><path d="M 7.203125 -1.15625 L 7.140625 -1.15625 C 6.535156 -0.28125 5.640625 0.15625 4.453125 0.15625 C 3.328125 0.15625 2.453125 -0.222656 1.828125 -0.984375 C 1.210938 -1.753906 0.90625 -2.847656 0.90625 -4.265625 C 0.90625 -5.671875 1.21875 -6.765625 1.84375 -7.546875 C 2.46875 -8.328125 3.335938 -8.71875 4.453125 -8.71875 C 5.609375 -8.71875 6.5 -8.296875 7.125 -7.453125 L 7.21875 -7.453125 L 7.171875 -8.078125 L 7.140625 -8.671875 L 7.140625 -12.15625 L 8.4375 -12.15625 L 8.4375 0 L 7.375 0 Z M 4.609375 -0.9375 C 5.492188 -0.9375 6.132812 -1.175781 6.53125 -1.65625 C 6.9375 -2.132812 7.140625 -2.910156 7.140625 -3.984375 L 7.140625 -4.265625 C 7.140625 -5.472656 6.9375 -6.335938 6.53125 -6.859375 C 6.125 -7.378906 5.476562 -7.640625 4.59375 -7.640625 C 3.832031 -7.640625 3.25 -7.34375 2.84375 -6.75 C 2.445312 -6.15625 2.25 -5.320312 2.25 -4.25 C 2.25 -3.15625 2.445312 -2.328125 2.84375 -1.765625 C 3.25 -1.210938 3.835938 -0.9375 4.609375 -0.9375 Z M 4.609375 -0.9375 "/></g></g></g><g fill="#ffffff" fill-opacity="1"><g transform="translate(177.57144, 29.788946)"><g><path d="M 5 0.15625 C 3.726562 0.15625 2.726562 -0.226562 2 -1 C 1.269531 -1.769531 0.90625 -2.84375 0.90625 -4.21875 C 0.90625 -5.59375 1.242188 -6.6875 1.921875 -7.5 C 2.597656 -8.3125 3.507812 -8.71875 4.65625 -8.71875 C 5.726562 -8.71875 6.578125 -8.363281 7.203125 -7.65625 C 7.828125 -6.957031 8.140625 -6.03125 8.140625 -4.875 L 8.140625 -4.046875 L 2.25 -4.046875 C 2.269531 -3.046875 2.519531 -2.285156 3 -1.765625 C 3.488281 -1.242188 4.171875 -0.984375 5.046875 -0.984375 C 5.960938 -0.984375 6.875 -1.175781 7.78125 -1.5625 L 7.78125 -0.40625 C 7.320312 -0.207031 6.882812 -0.0664062 6.46875 0.015625 C 6.0625 0.109375 5.570312 0.15625 5 0.15625 Z M 4.640625 -7.640625 C 3.953125 -7.640625 3.40625 -7.414062 3 -6.96875 C 2.59375 -6.519531 2.351562 -5.898438 2.28125 -5.109375 L 6.75 -5.109375 C 6.75 -5.921875 6.566406 -6.546875 6.203125 -6.984375 C 5.835938 -7.421875 5.316406 -7.640625 4.640625 -7.640625 Z M 4.640625 -7.640625 "/></g></g></g><g fill="#ffffff" fill-opacity="1"><g transform="translate(186.545816, 29.788946)"><g/></g></g><g fill="#ffffff" fill-opacity="1"><g transform="translate(190.701051, 29.788946)"><g><path d="M 5.09375 0 L 3.765625 0 L 3.765625 -10.25 L 0.140625 -10.25 L 0.140625 -11.421875 L 8.703125 -11.421875 L 8.703125 -10.25 L 5.09375 -10.25 Z M 5.09375 0 "/></g></g></g><g fill="#ffffff" fill-opacity="1"><g transform="translate(199.550458, 29.788946)"><g><path d="M 6.640625 0 L 6.390625 -1.21875 L 6.328125 -1.21875 C 5.898438 -0.6875 5.472656 -0.320312 5.046875 -0.125 C 4.617188 0.0625 4.085938 0.15625 3.453125 0.15625 C 2.609375 0.15625 1.941406 -0.0625 1.453125 -0.5 C 0.972656 -0.9375 0.734375 -1.5625 0.734375 -2.375 C 0.734375 -4.101562 2.117188 -5.007812 4.890625 -5.09375 L 6.34375 -5.140625 L 6.34375 -5.671875 C 6.34375 -6.335938 6.195312 -6.832031 5.90625 -7.15625 C 5.613281 -7.476562 5.148438 -7.640625 4.515625 -7.640625 C 3.804688 -7.640625 3 -7.421875 2.09375 -6.984375 L 1.703125 -7.96875 C 2.117188 -8.195312 2.578125 -8.375 3.078125 -8.5 C 3.585938 -8.632812 4.09375 -8.703125 4.59375 -8.703125 C 5.613281 -8.703125 6.367188 -8.472656 6.859375 -8.015625 C 7.359375 -7.566406 7.609375 -6.84375 7.609375 -5.84375 L 7.609375 0 Z M 3.71875 -0.921875 C 4.519531 -0.921875 5.148438 -1.140625 5.609375 -1.578125 C 6.078125 -2.023438 6.3125 -2.644531 6.3125 -3.4375 L 6.3125 -4.21875 L 5.015625 -4.15625 C 3.984375 -4.125 3.238281 -3.960938 2.78125 -3.671875 C 2.320312 -3.390625 2.09375 -2.953125 2.09375 -2.359375 C 2.09375 -1.890625 2.234375 -1.53125 2.515625 -1.28125 C 2.804688 -1.039062 3.207031 -0.921875 3.71875 -0.921875 Z M 3.71875 -0.921875 "/></g></g></g><g fill="#ffffff" fill-opacity="1"><g transform="translate(208.446728, 29.788946)"><g><path d="M 5.28125 -8.71875 C 5.664062 -8.71875 6.007812 -8.6875 6.3125 -8.625 L 6.125 -7.421875 C 5.769531 -7.503906 5.457031 -7.546875 5.1875 -7.546875 C 4.5 -7.546875 3.90625 -7.265625 3.40625 -6.703125 C 2.914062 -6.140625 2.671875 -5.4375 2.671875 -4.59375 L 2.671875 0 L 1.375 0 L 1.375 -8.5625 L 2.453125 -8.5625 L 2.59375 -6.984375 L 2.65625 -6.984375 C 2.976562 -7.535156 3.363281 -7.960938 3.8125 -8.265625 C 4.257812 -8.566406 4.75 -8.71875 5.28125 -8.71875 Z M 5.28125 -8.71875 "/></g></g></g><g fill="#ffffff" fill-opacity="1"><g transform="translate(214.976383, 29.788946)"><g><path d="M 5 0.15625 C 3.726562 0.15625 2.726562 -0.226562 2 -1 C 1.269531 -1.769531 0.90625 -2.84375 0.90625 -4.21875 C 0.90625 -5.59375 1.242188 -6.6875 1.921875 -7.5 C 2.597656 -8.3125 3.507812 -8.71875 4.65625 -8.71875 C 5.726562 -8.71875 6.578125 -8.363281 7.203125 -7.65625 C 7.828125 -6.957031 8.140625 -6.03125 8.140625 -4.875 L 8.140625 -4.046875 L 2.25 -4.046875 C 2.269531 -3.046875 2.519531 -2.285156 3 -1.765625 C 3.488281 -1.242188 4.171875 -0.984375 5.046875 -0.984375 C 5.960938 -0.984375 6.875 -1.175781 7.78125 -1.5625 L 7.78125 -0.40625 C 7.320312 -0.207031 6.882812 -0.0664062 6.46875 0.015625 C 6.0625 0.109375 5.570312 0.15625 5 0.15625 Z M 4.640625 -7.640625 C 3.953125 -7.640625 3.40625 -7.414062 3 -6.96875 C 2.59375 -6.519531 2.351562 -5.898438 2.28125 -5.109375 L 6.75 -5.109375 C 6.75 -5.921875 6.566406 -6.546875 6.203125 -6.984375 C 5.835938 -7.421875 5.316406 -7.640625 4.640625 -7.640625 Z M 4.640625 -7.640625 "/></g></g></g><g fill="#ffffff" fill-opacity="1"><g transform="translate(223.950759, 29.788946)"><g><path d="M 5.234375 -7.5625 L 3.0625 -7.5625 L 3.0625 0 L 1.765625 0 L 1.765625 -7.5625 L 0.234375 -7.5625 L 0.234375 -8.140625 L 1.765625 -8.609375 L 1.765625 -9.09375 C 1.765625 -11.195312 2.679688 -12.25 4.515625 -12.25 C 4.972656 -12.25 5.503906 -12.15625 6.109375 -11.96875 L 5.78125 -10.9375 C 5.28125 -11.09375 4.851562 -11.171875 4.5 -11.171875 C 4.007812 -11.171875 3.644531 -11.007812 3.40625 -10.6875 C 3.175781 -10.363281 3.0625 -9.84375 3.0625 -9.125 L 3.0625 -8.5625 L 5.234375 -8.5625 Z M 5.234375 -7.5625 "/></g></g></g><g fill="#ffffff" fill-opacity="1"><g transform="translate(229.37131, 29.788946)"><g><path d="M 6.640625 0 L 6.390625 -1.21875 L 6.328125 -1.21875 C 5.898438 -0.6875 5.472656 -0.320312 5.046875 -0.125 C 4.617188 0.0625 4.085938 0.15625 3.453125 0.15625 C 2.609375 0.15625 1.941406 -0.0625 1.453125 -0.5 C 0.972656 -0.9375 0.734375 -1.5625 0.734375 -2.375 C 0.734375 -4.101562 2.117188 -5.007812 4.890625 -5.09375 L 6.34375 -5.140625 L 6.34375 -5.671875 C 6.34375 -6.335938 6.195312 -6.832031 5.90625 -7.15625 C 5.613281 -7.476562 5.148438 -7.640625 4.515625 -7.640625 C 3.804688 -7.640625 3 -7.421875 2.09375 -6.984375 L 1.703125 -7.96875 C 2.117188 -8.195312 2.578125 -8.375 3.078125 -8.5 C 3.585938 -8.632812 4.09375 -8.703125 4.59375 -8.703125 C 5.613281 -8.703125 6.367188 -8.472656 6.859375 -8.015625 C 7.359375 -7.566406 7.609375 -6.84375 7.609375 -5.84375 L 7.609375 0 Z M 3.71875 -0.921875 C 4.519531 -0.921875 5.148438 -1.140625 5.609375 -1.578125 C 6.078125 -2.023438 6.3125 -2.644531 6.3125 -3.4375 L 6.3125 -4.21875 L 5.015625 -4.15625 C 3.984375 -4.125 3.238281 -3.960938 2.78125 -3.671875 C 2.320312 -3.390625 2.09375 -2.953125 2.09375 -2.359375 C 2.09375 -1.890625 2.234375 -1.53125 2.515625 -1.28125 C 2.804688 -1.039062 3.207031 -0.921875 3.71875 -0.921875 Z M 3.71875 -0.921875 "/></g></g></g><g fill="#ffffff" fill-opacity="1"><g transform="translate(238.26758, 29.788946)"><g><path d="M 6.90625 -2.34375 C 6.90625 -1.539062 6.609375 -0.921875 6.015625 -0.484375 C 5.421875 -0.0546875 4.585938 0.15625 3.515625 0.15625 C 2.378906 0.15625 1.492188 -0.0234375 0.859375 -0.390625 L 0.859375 -1.59375 C 1.265625 -1.382812 1.703125 -1.21875 2.171875 -1.09375 C 2.648438 -0.976562 3.109375 -0.921875 3.546875 -0.921875 C 4.222656 -0.921875 4.742188 -1.023438 5.109375 -1.234375 C 5.472656 -1.453125 5.65625 -1.785156 5.65625 -2.234375 C 5.65625 -2.566406 5.507812 -2.847656 5.21875 -3.078125 C 4.925781 -3.316406 4.363281 -3.597656 3.53125 -3.921875 C 2.726562 -4.222656 2.160156 -4.484375 1.828125 -4.703125 C 1.492188 -4.921875 1.242188 -5.171875 1.078125 -5.453125 C 0.910156 -5.734375 0.828125 -6.070312 0.828125 -6.46875 C 0.828125 -7.164062 1.109375 -7.710938 1.671875 -8.109375 C 2.242188 -8.515625 3.023438 -8.71875 4.015625 -8.71875 C 4.941406 -8.71875 5.84375 -8.53125 6.71875 -8.15625 L 6.265625 -7.109375 C 5.398438 -7.460938 4.617188 -7.640625 3.921875 -7.640625 C 3.304688 -7.640625 2.84375 -7.539062 2.53125 -7.34375 C 2.21875 -7.15625 2.0625 -6.890625 2.0625 -6.546875 C 2.0625 -6.316406 2.117188 -6.117188 2.234375 -5.953125 C 2.359375 -5.796875 2.550781 -5.644531 2.8125 -5.5 C 3.070312 -5.351562 3.570312 -5.144531 4.3125 -4.875 C 5.320312 -4.5 6.003906 -4.125 6.359375 -3.75 C 6.722656 -3.375 6.90625 -2.90625 6.90625 -2.34375 Z M 6.90625 -2.34375 "/></g></g></g></svg>