<svg xmlns="http://www.w3.org/2000/svg" xmlns:xlink="http://www.w3.org/1999/xlink" width="500" zoomAndPan="magnify" viewBox="0 0 375 374.999991" height="500" preserveAspectRatio="xMidYMid meet" version="1.0"><path fill="#f7f8fa" d="M 292.449219 61.894531 C 286.21875 67.65625 279.898438 73.496094 272.84375 80.011719 C 270.460938 78.484375 267.648438 76.796875 264.945312 74.941406 C 184.109375 19.460938 72.089844 60.910156 48.558594 156.105469 C 28.90625 235.613281 80.03125 305.84375 147.84375 323.339844 C 218.285156 341.511719 286.679688 307.894531 314.746094 241.789062 C 326.210938 214.789062 328.019531 186.730469 321.433594 158.382812 C 319.191406 148.726562 319.457031 140.828125 326.117188 133.179688 C 329.769531 128.984375 332.460938 123.964844 336.363281 118.164062 C 338.378906 121.042969 340.167969 122.8125 341.039062 124.953125 C 360.363281 172.554688 359.660156 220.046875 335.445312 265.261719 C 301.316406 328.980469 246.289062 360.664062 174.410156 356.617188 C 67.140625 350.574219 0.015625 252.066406 18.6875 156.863281 C 33.710938 80.277344 105.742188 14.390625 199.878906 21.929688 C 230.613281 24.394531 258.792969 35.070312 283.945312 53.203125 C 286.089844 54.75 288.1875 56.378906 290.15625 58.140625 C 290.945312 58.84375 291.324219 60 292.449219 61.894531 Z M 292.449219 61.894531 " fill-opacity="1" fill-rule="nonzero"/><path fill="#f7f8fa" d="M 182.035156 211.675781 C 190.722656 202.058594 198.144531 193.570312 205.859375 185.351562 C 249.570312 138.75 293.261719 92.140625 337.183594 45.742188 C 343.914062 38.640625 351.628906 32.421875 359.226562 26.207031 C 362.226562 23.753906 366.160156 22.4375 369.664062 20.601562 C 373.859375 26.378906 371.054688 30.425781 368.804688 34.132812 C 360.382812 48.03125 352.117188 62.050781 343.035156 75.511719 C 299.679688 139.734375 256.195312 203.871094 212.40625 267.800781 C 206.703125 276.125 199.433594 283.558594 192.03125 290.484375 C 184.773438 297.269531 181.007812 296.957031 172.941406 291.253906 C 169.554688 288.863281 166.179688 286.300781 163.367188 283.292969 C 135.226562 253.203125 106.964844 223.222656 79.265625 192.730469 C 67.824219 180.136719 69.664062 172.511719 84.363281 164.074219 C 86.976562 162.574219 89.804688 161.445312 92.480469 160.035156 C 107.273438 152.234375 120.089844 153.3125 132.324219 166.128906 C 144.570312 178.949219 158.285156 190.371094 171.382812 202.371094 C 174.378906 205.121094 177.503906 207.726562 182.035156 211.675781 Z M 182.035156 211.675781 " fill-opacity="1" fill-rule="nonzero"/></svg>