<svg xmlns="http://www.w3.org/2000/svg" xmlns:xlink="http://www.w3.org/1999/xlink" width="500" zoomAndPan="magnify" viewBox="0 0 375 374.999991" height="500" preserveAspectRatio="xMidYMid meet" version="1.0"><defs><clipPath id="4ee4b53fbf"><path d="M 0.316406 1.113281 L 350.828125 1.113281 L 350.828125 323.886719 L 0.316406 323.886719 Z M 0.316406 1.113281 " clip-rule="nonzero"/></clipPath><clipPath id="73d35c7b15"><path d="M 75.316406 1.113281 L 275.683594 1.113281 C 317.105469 1.113281 350.683594 34.691406 350.683594 76.113281 L 350.683594 248.886719 C 350.683594 290.308594 317.105469 323.886719 275.683594 323.886719 L 75.316406 323.886719 C 33.894531 323.886719 0.316406 290.308594 0.316406 248.886719 L 0.316406 76.113281 C 0.316406 34.691406 33.894531 1.113281 75.316406 1.113281 Z M 75.316406 1.113281 " clip-rule="nonzero"/></clipPath><clipPath id="5cc336facc"><path d="M 0.316406 0.113281 L 350.828125 0.113281 L 350.828125 322.886719 L 0.316406 322.886719 Z M 0.316406 0.113281 " clip-rule="nonzero"/></clipPath><clipPath id="fe4318cfc2"><path d="M 75.316406 0.113281 L 275.683594 0.113281 C 317.105469 0.113281 350.683594 33.691406 350.683594 75.113281 L 350.683594 247.886719 C 350.683594 289.308594 317.105469 322.886719 275.683594 322.886719 L 75.316406 322.886719 C 33.894531 322.886719 0.316406 289.308594 0.316406 247.886719 L 0.316406 75.113281 C 0.316406 33.691406 33.894531 0.113281 75.316406 0.113281 Z M 75.316406 0.113281 " clip-rule="nonzero"/></clipPath><clipPath id="b6f76a8e32"><rect x="0" width="351" y="0" height="323"/></clipPath><clipPath id="f4329cd666"><rect x="0" width="351" y="0" height="324"/></clipPath></defs><g transform="matrix(1, 0, 0, 1, 12, 25)"><g clip-path="url(#f4329cd666)"><g clip-path="url(#4ee4b53fbf)"><g clip-path="url(#73d35c7b15)"><g transform="matrix(1, 0, 0, 1, 0, 1)"><g clip-path="url(#b6f76a8e32)"><g clip-path="url(#5cc336facc)"><g clip-path="url(#fe4318cfc2)"><path fill="#524780" d="M 0.316406 0.113281 L 350.828125 0.113281 L 350.828125 322.886719 L 0.316406 322.886719 Z M 0.316406 0.113281 " fill-opacity="1" fill-rule="nonzero"/></g></g></g></g></g></g><path fill="#f7f8fa" d="M 252.871094 70.394531 C 248.300781 74.621094 243.664062 78.902344 238.492188 83.679688 C 236.746094 82.5625 234.683594 81.324219 232.699219 79.964844 C 173.425781 39.28125 91.28125 69.675781 74.027344 139.480469 C 59.617188 197.78125 97.105469 249.28125 146.832031 262.113281 C 198.488281 275.4375 248.636719 250.789062 269.21875 202.3125 C 277.628906 182.511719 278.953125 161.9375 274.125 141.148438 C 272.480469 134.070312 272.671875 128.277344 277.558594 122.667969 C 280.234375 119.59375 282.210938 115.910156 285.070312 111.65625 C 286.550781 113.769531 287.863281 115.066406 288.5 116.636719 C 302.671875 151.542969 302.15625 186.367188 284.398438 219.523438 C 259.371094 266.246094 219.019531 289.480469 166.3125 286.511719 C 87.652344 282.082031 38.429688 209.847656 52.121094 140.035156 C 63.136719 83.875 115.957031 35.558594 184.988281 41.089844 C 207.527344 42.898438 228.191406 50.726562 246.632812 64.023438 C 248.207031 65.15625 249.746094 66.351562 251.191406 67.644531 C 251.765625 68.160156 252.046875 69.007812 252.871094 70.394531 Z M 252.871094 70.394531 " fill-opacity="1" fill-rule="nonzero"/><path fill="#f7f8fa" d="M 171.902344 180.230469 C 178.273438 173.179688 183.71875 166.953125 189.375 160.925781 C 221.425781 126.753906 253.464844 92.574219 285.675781 58.550781 C 290.609375 53.34375 296.265625 48.78125 301.835938 44.226562 C 304.039062 42.425781 306.921875 41.460938 309.492188 40.117188 C 312.566406 44.351562 310.511719 47.320312 308.863281 50.039062 C 302.6875 60.230469 296.625 70.511719 289.964844 80.378906 C 258.171875 127.476562 226.285156 174.507812 194.175781 221.386719 C 189.992188 227.488281 184.660156 232.9375 179.234375 238.019531 C 173.914062 242.996094 171.152344 242.765625 165.234375 238.585938 C 162.753906 236.832031 160.277344 234.953125 158.214844 232.746094 C 137.578125 210.679688 116.855469 188.695312 96.546875 166.339844 C 88.152344 157.101562 89.503906 151.511719 100.28125 145.324219 C 102.199219 144.222656 104.269531 143.394531 106.234375 142.359375 C 117.082031 136.644531 126.480469 137.433594 135.453125 146.828125 C 144.433594 156.230469 154.488281 164.609375 164.09375 173.40625 C 166.289062 175.425781 168.582031 177.332031 171.902344 180.230469 Z M 171.902344 180.230469 " fill-opacity="1" fill-rule="nonzero"/></g></g></svg>